<svg xmlns="http://www.w3.org/2000/svg" viewBox="0 0 240 278" role="img" aria-label="climniche logo" width="240" height="278"><metadata><rdf:RDF xmlns:rdf="http://www.w3.org/1999/02/22-rdf-syntax-ns#" xmlns:dc="http://purl.org/dc/elements/1.1/"><rdf:Description><dc:creator>RealFaviconGenerator</dc:creator><dc:source>https://realfavicongenerator.net</dc:source></rdf:Description></rdf:RDF></metadata><defs>
    <linearGradient id="sea" x1="40" y1="42" x2="205" y2="236" gradientUnits="userSpaceOnUse">
      <stop offset="0" stop-color="#d8ece8"></stop>
      <stop offset="0.55" stop-color="#7fb5ad"></stop>
      <stop offset="1" stop-color="#325f5b"></stop>
    </linearGradient>
    <filter id="shadow" x="-20%" y="-20%" width="140%" height="140%">
      <feDropShadow dx="0" dy="5" stdDeviation="5" flood-color="#23433f" flood-opacity="0.22"></feDropShadow>
    </filter>
  </defs><path filter="url(#shadow)" d="M120 8 226 69v140l-106 61L14 209V69z" fill="url(#sea)" stroke="#244b47" stroke-width="8" stroke-linejoin="round"></path><path d="M52 179c30-51 72-91 126-121" fill="none" stroke="#f7faf8" stroke-width="9" stroke-linecap="round" opacity="0.95"></path><path d="M59 177c30 8 63-1 95-27 21-17 33-37 43-64" fill="none" stroke="#23433f" stroke-width="4" stroke-linecap="round" opacity="0.75"></path><path d="M70 184c24-16 49-21 75-15 16 4 31 12 45 24" fill="none" stroke="#e9b45c" stroke-width="7" stroke-linecap="round"></path><path d="M116 81c12 0 24 5 33 13 11 11 17 26 17 42" fill="none" stroke="#23433f" stroke-width="6" stroke-linecap="round"></path><circle cx="119" cy="138" r="11" fill="#f7faf8" stroke="#23433f" stroke-width="5"></circle><path d="M119 138 160 103" fill="none" stroke="#23433f" stroke-width="5" stroke-linecap="round"></path><path d="M153 101l13-5-4 13" fill="none" stroke="#23433f" stroke-width="5" stroke-linecap="round" stroke-linejoin="round"></path><text x="120" y="232" text-anchor="middle" font-family="Arial, Helvetica, sans-serif" font-size="34" font-weight="700" fill="#f7faf8">climniche</text></svg>