<svg xmlns="http://www.w3.org/2000/svg" viewBox="0 0 320 360" role="img" aria-label="climniche logo">
  <defs>
    <linearGradient id="hexFill" x1="55" y1="42" x2="265" y2="318" gradientUnits="userSpaceOnUse">
      <stop offset="0" stop-color="#dff2ee"/>
      <stop offset="0.52" stop-color="#8cc6bd"/>
      <stop offset="1" stop-color="#315f59"/>
    </linearGradient>
    <radialGradient id="light" cx="118" cy="92" r="180" gradientUnits="userSpaceOnUse">
      <stop offset="0" stop-color="#ffffff" stop-opacity="0.62"/>
      <stop offset="1" stop-color="#ffffff" stop-opacity="0"/>
    </radialGradient>
    <filter id="softShadow" x="-18%" y="-18%" width="136%" height="136%">
      <feDropShadow dx="0" dy="7" stdDeviation="6" flood-color="#153c38" flood-opacity="0.22"/>
    </filter>
    <filter id="wordShadow" x="-15%" y="-15%" width="130%" height="130%">
      <feDropShadow dx="0" dy="2" stdDeviation="1.2" flood-color="#133b36" flood-opacity="0.38"/>
    </filter>
    <clipPath id="hexClip">
      <polygon points="160,16 296,94 296,250 160,334 24,250 24,94"/>
    </clipPath>
    <marker id="vectorArrow" viewBox="0 0 12 12" refX="10" refY="6" markerWidth="6.8" markerHeight="6.8" orient="auto">
      <path d="M0,0 L12,6 L0,12 Z" fill="#b85b55"/>
    </marker>
  </defs>

  <polygon points="160,16 296,94 296,250 160,334 24,250 24,94"
           fill="url(#hexFill)" stroke="#164944" stroke-width="9"
           stroke-linejoin="round" filter="url(#softShadow)"/>
  <g clip-path="url(#hexClip)">
    <rect width="320" height="360" fill="url(#light)"/>
    <path d="M56 92 L255 264" fill="none" stroke="#ffffff" stroke-width="9"
          stroke-linecap="round" opacity="0.58"/>
    <path d="M78 212 C104 183 137 168 183 161 C215 156 244 145 266 124"
          fill="none" stroke="#d8ece8" stroke-width="2.2" opacity="0.75"/>
    <path d="M82 138 H242 M96 113 V217 M160 98 V228 M224 118 V206"
          fill="none" stroke="#f5fbf9" stroke-width="1.2" opacity="0.33"/>

    <ellipse cx="160" cy="159" rx="82" ry="49" transform="rotate(-18 160 159)"
             fill="none" stroke="#164944" stroke-width="4.2"
             stroke-dasharray="8 8" opacity="0.72"/>
    <ellipse cx="160" cy="159" rx="60" ry="34" transform="rotate(-18 160 159)"
             fill="#dfece9" fill-opacity="0.72" stroke="#164944" stroke-width="5"/>
    <path d="M107 184 C132 196 174 192 213 169 C227 160 240 149 252 136"
          fill="none" stroke="#164944" stroke-width="4.5" stroke-linecap="round"
          opacity="0.78"/>
    <circle cx="160" cy="159" r="9.5" fill="#ffffff" stroke="#164944" stroke-width="5"/>
    <circle cx="160" cy="159" r="3.1" fill="#164944"/>
    <line x1="160" y1="159" x2="220" y2="121" stroke="#b85b55" stroke-width="6"
          stroke-linecap="round" marker-end="url(#vectorArrow)"/>
    <path d="M72 232 C108 207 149 201 198 214 C218 219 238 228 258 241"
          fill="none" stroke="#efbd55" stroke-width="10" stroke-linecap="round"/>
    <path d="M74 232 C109 208 150 202 198 215 C219 220 239 229 257 241"
          fill="none" stroke="#fff4c7" stroke-width="2.3" stroke-linecap="round"
          opacity="0.46"/>
    <text x="160" y="279" text-anchor="middle"
          font-family="Arial, Helvetica, sans-serif" font-size="30"
          font-weight="700" letter-spacing="0" textLength="170"
          lengthAdjust="spacingAndGlyphs" fill="#ffffff"
          filter="url(#wordShadow)">climniche</text>
  </g>
</svg>
